<?xml version="1.0" encoding="utf-8"?>
<!-- Generator: Adobe Illustrator 22.1.0, SVG Export Plug-In . SVG Version: 6.00 Build 0)  -->
<svg version="1.1" id="Capa_1" xmlns="http://www.w3.org/2000/svg" xmlns:xlink="http://www.w3.org/1999/xlink" x="0px" y="0px"
	 viewBox="0 0 77.5 29" style="enable-background:new 0 0 77.5 29;" xml:space="preserve">
<style type="text/css">
	.st0{fill:#227290;}
</style>
<g>
	<g>
		<path class="st0" d="M20.6,7.7v0.9h-2V15h-1V8.6h-1.9V7.7H20.6z"/>
		<path class="st0" d="M20.8,11.7c0.2-0.3,0.5-0.6,0.8-0.8c0.4-0.2,0.8-0.3,1.2-0.3c0.4,0,0.8,0.1,1.2,0.3c0.3,0.2,0.6,0.5,0.8,0.8
			c0.2,0.3,0.3,0.7,0.3,1.1c0,0.4-0.1,0.8-0.3,1.1c-0.2,0.3-0.5,0.6-0.8,0.8c-0.4,0.2-0.8,0.3-1.2,0.3c-0.4,0-0.8-0.1-1.2-0.3
			c-0.4-0.2-0.6-0.4-0.8-0.8c-0.2-0.3-0.3-0.7-0.3-1.2C20.5,12.5,20.6,12.1,20.8,11.7z M21.6,13.6c0.1,0.2,0.3,0.4,0.5,0.5
			c0.2,0.1,0.4,0.2,0.7,0.2c0.4,0,0.7-0.1,1-0.4c0.3-0.3,0.4-0.6,0.4-1c0-0.4-0.1-0.8-0.4-1c-0.3-0.3-0.6-0.4-1-0.4
			c-0.3,0-0.5,0.1-0.7,0.2c-0.2,0.1-0.4,0.3-0.5,0.5c-0.1,0.2-0.2,0.5-0.2,0.7C21.5,13.1,21.5,13.4,21.6,13.6z"/>
		<path class="st0" d="M31.2,12.4v0.8h-1.9v-0.8H31.2z"/>
		<path class="st0" d="M40.3,7.2V15h-1v-0.7c-0.2,0.2-0.5,0.4-0.7,0.6s-0.6,0.2-1,0.2c-0.4,0-0.7-0.1-1.1-0.3S36,14.4,35.8,14
			c-0.2-0.3-0.3-0.7-0.3-1.2c0-0.5,0.1-0.8,0.3-1.2c0.2-0.3,0.4-0.6,0.8-0.8c0.3-0.2,0.7-0.3,1.1-0.3c0.3,0,0.6,0.1,0.9,0.2
			s0.5,0.3,0.7,0.5V7.2H40.3z M38.8,14c0.3-0.2,0.4-0.5,0.5-0.8v-0.8c-0.1-0.3-0.3-0.6-0.5-0.7c-0.3-0.2-0.6-0.3-0.9-0.3
			c-0.3,0-0.5,0.1-0.7,0.2c-0.2,0.1-0.4,0.3-0.5,0.5c-0.1,0.2-0.2,0.5-0.2,0.7c0,0.3,0.1,0.5,0.2,0.7c0.1,0.2,0.3,0.4,0.5,0.5
			c0.2,0.1,0.5,0.2,0.7,0.2C38.3,14.3,38.6,14.2,38.8,14z"/>
		<path class="st0" d="M41.8,11.7c0.2-0.3,0.5-0.6,0.8-0.8c0.4-0.2,0.8-0.3,1.2-0.3c0.4,0,0.8,0.1,1.2,0.3c0.3,0.2,0.6,0.5,0.8,0.8
			c0.2,0.3,0.3,0.7,0.3,1.1c0,0.4-0.1,0.8-0.3,1.1c-0.2,0.3-0.5,0.6-0.8,0.8c-0.4,0.2-0.8,0.3-1.2,0.3c-0.4,0-0.8-0.1-1.2-0.3
			c-0.4-0.2-0.6-0.4-0.8-0.8c-0.2-0.3-0.3-0.7-0.3-1.2C41.5,12.5,41.6,12.1,41.8,11.7z M42.7,13.6c0.1,0.2,0.3,0.4,0.5,0.5
			c0.2,0.1,0.4,0.2,0.7,0.2c0.4,0,0.7-0.1,1-0.4c0.3-0.3,0.4-0.6,0.4-1c0-0.4-0.1-0.8-0.4-1c-0.3-0.3-0.6-0.4-1-0.4
			c-0.3,0-0.5,0.1-0.7,0.2c-0.2,0.1-0.4,0.3-0.5,0.5c-0.1,0.2-0.2,0.5-0.2,0.7C42.5,13.1,42.5,13.4,42.7,13.6z"/>
		<path class="st0" d="M51.5,7.2V15h-0.9V7.2H51.5z"/>
		<path class="st0" d="M53.3,8.9c0.1-0.1,0.2-0.2,0.4-0.2c0.1,0,0.3,0.1,0.4,0.2s0.2,0.2,0.2,0.4c0,0.1-0.1,0.3-0.2,0.4
			s-0.2,0.2-0.4,0.2c-0.1,0-0.3-0.1-0.4-0.2s-0.2-0.2-0.2-0.4C53.1,9.1,53.2,9,53.3,8.9z M54.1,10.8V15h-0.9v-4.2H54.1z"/>
		<path class="st0" d="M56.1,14.9c-0.3-0.1-0.5-0.3-0.7-0.5l0.4-0.5c0.2,0.2,0.3,0.3,0.5,0.4c0.2,0.1,0.4,0.1,0.6,0.1
			c0.2,0,0.4,0,0.5-0.1c0.1-0.1,0.2-0.2,0.2-0.4c0-0.1,0-0.3-0.1-0.3c-0.1-0.1-0.2-0.2-0.3-0.2c-0.1,0-0.3-0.1-0.6-0.2
			c-0.7-0.2-1.1-0.6-1.1-1.2c0-0.4,0.1-0.7,0.4-0.9c0.3-0.2,0.6-0.4,1.1-0.4c0.3,0,0.6,0,0.8,0.1c0.2,0.1,0.4,0.2,0.6,0.4l-0.4,0.6
			c-0.1-0.1-0.2-0.2-0.4-0.3c-0.2-0.1-0.3-0.1-0.5-0.1c-0.2,0-0.4,0-0.5,0.1c-0.1,0.1-0.2,0.2-0.2,0.4c0,0.1,0,0.2,0.1,0.3
			c0.1,0.1,0.2,0.1,0.3,0.2c0.1,0,0.3,0.1,0.6,0.2c0.3,0.1,0.6,0.3,0.8,0.4c0.2,0.2,0.3,0.4,0.3,0.7c0,0.4-0.1,0.7-0.4,1
			c-0.3,0.3-0.7,0.4-1.2,0.4C56.6,15.1,56.4,15,56.1,14.9z"/>
		<path class="st0" d="M61.3,9v1.9h1.1v0.7h-1.1V15h-1v-3.4h-0.8v-0.7h0.8V9H61.3z"/>
		<path class="st0" d="M35.1,17v4.4h-1.4v-0.5c-0.4,0.4-0.9,0.7-1.5,0.7c-0.7,0-1.2-0.2-1.6-0.6c-0.4-0.4-0.6-1-0.6-1.7
			c0-0.5,0.1-0.9,0.3-1.3c0.2-0.4,0.5-0.7,0.8-0.9c0.3-0.2,0.7-0.3,1.1-0.3c0.4,0,0.7,0.1,0.9,0.2c0.2,0.1,0.4,0.3,0.6,0.5l0.1-0.5
			H35.1z M33.6,19.7v-1.1c-0.1-0.2-0.2-0.4-0.4-0.5c-0.2-0.1-0.4-0.2-0.7-0.2c-0.3,0-0.6,0.1-0.8,0.3c-0.2,0.2-0.3,0.5-0.3,0.9
			c0,0.2,0.1,0.4,0.2,0.6c0.1,0.2,0.3,0.3,0.4,0.5c0.2,0.1,0.4,0.2,0.6,0.2C33.1,20.4,33.4,20.1,33.6,19.7z"/>
		<path class="st0" d="M40.7,17c0.3,0.2,0.6,0.5,0.8,0.8c0.2,0.4,0.3,0.8,0.3,1.3c0,0.5-0.1,0.9-0.3,1.3c-0.2,0.4-0.5,0.6-0.9,0.8
			c-0.4,0.2-0.8,0.3-1.3,0.3c-0.3,0-0.5,0-0.8-0.1c-0.2-0.1-0.5-0.2-0.6-0.4v2.5h-1.4v-6.7h1.2l0.1,0.5c0.5-0.4,1.1-0.6,1.7-0.6
			C40,16.7,40.3,16.8,40.7,17z M39.9,20.1c0.2-0.2,0.4-0.5,0.4-0.9c0-0.4-0.1-0.7-0.3-0.9c-0.2-0.2-0.5-0.3-0.8-0.3
			c-0.3,0-0.5,0.1-0.7,0.2c-0.2,0.1-0.3,0.3-0.5,0.5v1.1c0.1,0.2,0.2,0.4,0.4,0.5c0.2,0.1,0.4,0.2,0.7,0.2
			C39.4,20.4,39.7,20.3,39.9,20.1z"/>
		<path class="st0" d="M47,17c0.3,0.2,0.6,0.5,0.8,0.8c0.2,0.4,0.3,0.8,0.3,1.3c0,0.5-0.1,0.9-0.3,1.3c-0.2,0.4-0.5,0.6-0.9,0.8
			c-0.4,0.2-0.8,0.3-1.3,0.3c-0.3,0-0.5,0-0.8-0.1c-0.2-0.1-0.5-0.2-0.6-0.4v2.5h-1.4v-6.7H44l0.1,0.5c0.5-0.4,1.1-0.6,1.7-0.6
			C46.3,16.7,46.7,16.8,47,17z M46.2,20.1c0.2-0.2,0.4-0.5,0.4-0.9c0-0.4-0.1-0.7-0.3-0.9c-0.2-0.2-0.5-0.3-0.8-0.3
			c-0.3,0-0.5,0.1-0.7,0.2c-0.2,0.1-0.3,0.3-0.5,0.5v1.1c0.1,0.2,0.2,0.4,0.4,0.5c0.2,0.1,0.4,0.2,0.7,0.2
			C45.7,20.4,46,20.3,46.2,20.1z"/>
	</g>
</g>
</svg>
